#N canvas 81 221 1281 701 12;
#X obj 14 16 cnv 15 400 40 empty empty [expr] 20 12 0 24 -262144 -66577
0;
#X obj 234 182 +;
#X obj 263 182 -;
#X obj 291 182 *;
#X obj 319 182 /;
#X obj 951 151 &;
#X obj 980 151 |;
#X obj 1008 151 &&;
#X obj 1036 151 ||;
#X obj 1064 151 <<;
#X obj 1094 151 >>;
#X floatatom 981 22 5 0 0 0 - - -;
#X floatatom 872 21 5 0 0 0 - - -;
#X floatatom 872 73 5 0 0 0 - - -;
#X floatatom 967 206 5 0 0 0 - - -;
#X floatatom 967 258 5 0 0 0 - - -;
#X floatatom 1082 209 5 0 0 0 - - -;
#X obj 656 46 ==;
#X obj 715 46 >;
#X obj 771 46 <;
#X obj 743 46 >=;
#X obj 801 46 <=;
#X obj 686 46 !=;
#X obj 225 546 expr ln($f1);
#X floatatom 225 523 5 0 0 0 - - -;
#X floatatom 225 572 5 0 0 0 - - -;
#X text 319 545 =;
#X floatatom 337 522 5 0 0 0 - - -;
#X floatatom 337 572 5 0 0 0 - - -;
#X obj 337 546 expr log($f1);
#X floatatom 79 588 5 0 0 0 - - -;
#X obj 79 615 expr log10($f1);
#X floatatom 79 645 5 0 0 0 - - -;
#X obj 34 444 sin;
#X obj 64 444 cos;
#X obj 91 444 tan;
#X obj 119 444 atan;
#X obj 154 444 atan2;
#X obj 222 443 expr cos($f1);
#X obj 23 471 acos;
#X obj 97 471 asin;
#X obj 169 471 tanh;
#X obj 133 471 sinh;
#X obj 61 471 cosh;
#X obj 173 547 log;
#X floatatom 173 522 5 0 0 0 - - -;
#X floatatom 173 573 5 0 0 0 - - -;
#X text 36 498 ============================================================
;
#X floatatom 48 317 5 0 0 0 - - -;
#X obj 48 289 expr ($f1 + $f2) * $f3;
#X msg 48 263 1;
#X msg 123 262 2;
#X msg 199 261 3;
#X floatatom 255 317 5 0 0 0 - - -;
#X msg 255 263 1;
#X msg 330 262 2;
#X msg 406 261 3;
#X obj 255 289 expr $f1 + ($f2 * $f3);
#X text 206 545 =;
#X floatatom 222 420 5 0 0 0 - - -;
#X floatatom 222 467 5 0 0 0 - - -;
#X obj 513 213 +;
#X obj 513 238 sqrt;
#X obj 488 186 pow 2;
#X obj 531 185 pow 2;
#X obj 592 184 expr sqrt(pow($f1 \, 2) + pow($f2 \, 2));
#X floatatom 592 209 7 0 0 0 - - -;
#X text 652 209 sqrt(x^2 + y^2);
#X floatatom 614 150 5 0 0 0 y - -;
#X floatatom 560 150 5 0 0 0 x - -;
#X floatatom 513 262 7 0 0 0 - - -;
#X text 569 262 sqrt(x^2 + y^2);
#X text 552 208 =;
#X text 220 288 !=;
#X text 201 615 Log Base 10;
#X obj 872 47 expr ($f1 > $f2);
#X obj 539 398 pow 2;
#X msg 577 370 -15;
#X floatatom 539 424 5 0 0 0 - - -;
#X obj 585 398 expr pow($f1 \, 2);
#X floatatom 585 424 5 0 0 0 - - -;
#X obj 715 406 pow -0.1;
#X obj 778 406 expr pow($f1 \, -0.1);
#X msg 757 379 20;
#X floatatom 715 430 5 0 0 0 - - -;
#X floatatom 778 429 5 0 0 0 - - -;
#X floatatom 519 561 5 0 0 0 - - -;
#X floatatom 519 628 5 0 0 0 - - -;
#X floatatom 607 627 5 0 0 0 - - -;
#X obj 967 232 expr ($f1 && $f2);
#X msg 952 380 -0.13;
#X floatatom 952 438 5 0 0 0 - - -;
#X obj 952 408 expr pow($f1 \, 3.1);
#X msg 1089 381 -0.13;
#X obj 1089 409 pow 3.1;
#X floatatom 1089 435 5 0 0 0 - - -;
#X text 596 544 ============================================================
;
#X text 18 79 You can write the most diverse formulas with [expr] \,
in the same fashion of many programming languages. Many of the functions
in [expr] are also objects in Pd!;
#X text 16 150 You can use any of the arithmetic operators:;
#X text 137 347 Mind the parenthesis!;
#X text 35 394 Trigonometrical functions;
#X text 48 412 in radians (2 * pi);
#X text 29 544 Natural logarithm;
#X text 684 18 Comparatives:;
#X text 978 121 Logical Operators;
#X text 669 149 Power & Square Root;
#X text 464 305 => Atention: the [pow] object doesn't deal with negative
values. Use o [expr]!;
#X text 582 340 (both deal with negative powers though);
#X text 536 445 NOPE;
#X text 585 446 YEAH!;
#X text 791 489 [expr] won't calculate complex exponentials \, and
gives back 'nan' (not a real number) \, whereas [pow] gives a zero
back.;
#X text 530 460 (zero);
#X text 931 285 We'll see them in "Conditionals";
#X text 659 577 We can have more than one outlet \, each related to
a mathematical expression. To create separate formulas just insert
semicolons \, just like in messages.;
#X obj 519 586 expr $f1 * 2 \; $f1 / 2;
#X obj 333 444 expr atan2($f1 \, $f2);
#X text 40 376 ============================================================
;
#X connect 11 0 75 1;
#X connect 12 0 75 0;
#X connect 14 0 89 0;
#X connect 16 0 89 1;
#X connect 23 0 25 0;
#X connect 24 0 23 0;
#X connect 27 0 29 0;
#X connect 29 0 28 0;
#X connect 30 0 31 0;
#X connect 31 0 32 0;
#X connect 38 0 60 0;
#X connect 44 0 46 0;
#X connect 45 0 44 0;
#X connect 49 0 48 0;
#X connect 50 0 49 0;
#X connect 51 0 49 1;
#X connect 52 0 49 2;
#X connect 54 0 57 0;
#X connect 55 0 57 1;
#X connect 56 0 57 2;
#X connect 57 0 53 0;
#X connect 59 0 38 0;
#X connect 61 0 62 0;
#X connect 62 0 70 0;
#X connect 63 0 61 0;
#X connect 64 0 61 1;
#X connect 65 0 66 0;
#X connect 68 0 65 1;
#X connect 68 0 64 0;
#X connect 69 0 65 0;
#X connect 69 0 63 0;
#X connect 75 0 13 0;
#X connect 76 0 78 0;
#X connect 77 0 76 0;
#X connect 77 0 79 0;
#X connect 79 0 80 0;
#X connect 81 0 84 0;
#X connect 82 0 85 0;
#X connect 83 0 81 0;
#X connect 83 0 82 0;
#X connect 86 0 114 0;
#X connect 89 0 15 0;
#X connect 90 0 92 0;
#X connect 92 0 91 0;
#X connect 93 0 94 0;
#X connect 94 0 95 0;
#X connect 114 0 87 0;
#X connect 114 1 88 0;
