#N canvas 785 301 952 781 12;
#X obj 425 61 max;
#X obj 45 169 exp;
#X obj 207 189 abs;
#X floatatom 207 405 0 0 0 0 - - -;
#X obj 207 376 % 7;
#X obj 259 188 expr abs($f1);
#X floatatom 239 155 5 -3000 0 0 - - -;
#X floatatom 259 216 5 0 0 0 - - -;
#X floatatom 207 216 5 0 0 0 - - -;
#X text 8 168 e^x;
#X obj 86 170 expr exp($f1);
#X floatatom 88 201 8 0 0 0 - - -;
#X floatatom 24 201 8 0 0 0 - - -;
#X msg 65 138 1;
#X obj 249 375 mod 7;
#X floatatom 249 406 0 0 0 0 - - -;
#X floatatom 25 406 0 0 0 0 - - -;
#X obj 640 60 min;
#X obj 462 60 expr max($f1 \, $f2);
#X floatatom 462 37 5 0 0 0 - - -;
#X floatatom 585 36 5 0 0 0 - - -;
#X floatatom 462 85 5 0 0 0 - - -;
#X floatatom 678 36 5 0 0 0 - - -;
#X floatatom 801 35 5 0 0 0 - - -;
#X floatatom 678 84 5 0 0 0 - - -;
#X obj 678 59 expr min($f1 \, $f2);
#X floatatom 597 212 5 0 0 0 - - -;
#X floatatom 488 212 5 0 0 0 - - -;
#X floatatom 488 266 5 0 0 0 - - -;
#X obj 488 238 expr ($f1 ~ $f2);
#X floatatom 674 197 5 0 0 0 - - -;
#X floatatom 674 256 5 0 0 0 - - -;
#X obj 674 229 expr fact($f1);
#X text 486 182 "One's complement";
#X text -2 264 =====================================================
;
#X text 436 120 =====================================================
;
#X text -2 488 =====================================================
;
#X floatatom 655 413 5 0 1000 0 - - -;
#X obj 620 445 div 7;
#X floatatom 620 473 5 0 0 0 - - -;
#X text 442 295 =====================================================
;
#X floatatom 690 472 5 0 0 0 - - -;
#X text 670 442 =;
#X text 445 498 =====================================================
;
#X obj 806 394 loadbang;
#X msg 806 418 7;
#X obj 185 581 div 60;
#X obj 237 581 mod 60;
#X floatatom 185 608 3 0 0 0 - - -;
#X floatatom 237 609 3 0 0 0 - - -;
#X text 183 626 min;
#X text 237 626 sec;
#X floatatom 217 545 5 0 0 0 - - -;
#X obj 690 442 expr int($f1/$f2);
#X floatatom 734 412 5 0 0 0 - - -;
#X obj 537 425 / 7;
#X obj 537 452 int;
#X floatatom 505 399 5 0 1000 0 - - -;
#X obj 470 431 div 7;
#X floatatom 470 459 5 0 0 0 - - -;
#X floatatom 537 479 5 0 0 0 - - -;
#X text 512 448 =;
#X text 210 675 =====================================================
;
#X text 210 749 =====================================================
;
#X obj -31 13 cnv 15 350 40 empty empty More_Functions: 20 18 0 24
-262144 -66577 0;
#X text 4 71 Yet more functions for [expr]:;
#X text 29 111 "e to the power of x";
#X text 211 128 Absolute Value;
#X text 204 518 seconds;
#X text 461 6 gives the bigger value;
#X text 671 5 gives the smaller value;
#X text 417 144 These are not objects \, and only built-in functions
of [expr]:;
#X text 719 193 factorial;
#X text 426 321 For integer numbers \, "div" is the integer part of
the division. It is not a built-in function of [expr] \, but you can
have it this way:;
#X text 307 568 The objects [div] & [mod] can be used \, for instance
\, to convert seconds in minutes:seconds. We get the minutes with [div
60] \, and seconds with [mod 60].;
#X text 190 704 We'll see in "Conditionals" how [expr] is also able
to understrand "if"!!!;
#X text 97 289 Modulo and remainder;
#X text 264 321;
#X text 125 307 [%] & [mod] differ when negative.;
#X floatatom 258 342 5 0 0 0 - - -;
#X obj 25 357 expr ($f1 % 7) \; fmod($f1 \, 7);
#X floatatom 127 404 5 0 0 0 - - -;
#X floatatom 68 325 5 0 0 0 - - -;
#X msg 25 326 9.3;
#X msg 213 342 9.3;
#X text 39 448 (fmod) in expr works for float;
#X connect 1 0 12 0;
#X connect 2 0 8 0;
#X connect 4 0 3 0;
#X connect 5 0 7 0;
#X connect 6 0 2 0;
#X connect 6 0 5 0;
#X connect 10 0 11 0;
#X connect 13 0 1 0;
#X connect 13 0 10 0;
#X connect 14 0 15 0;
#X connect 18 0 21 0;
#X connect 19 0 18 0;
#X connect 20 0 18 1;
#X connect 22 0 25 0;
#X connect 23 0 25 1;
#X connect 25 0 24 0;
#X connect 26 0 29 1;
#X connect 27 0 29 0;
#X connect 29 0 28 0;
#X connect 30 0 32 0;
#X connect 32 0 31 0;
#X connect 37 0 38 0;
#X connect 37 0 53 0;
#X connect 38 0 39 0;
#X connect 44 0 45 0;
#X connect 45 0 53 1;
#X connect 46 0 48 0;
#X connect 47 0 49 0;
#X connect 52 0 46 0;
#X connect 52 0 47 0;
#X connect 53 0 41 0;
#X connect 54 0 38 1;
#X connect 54 0 53 1;
#X connect 55 0 56 0;
#X connect 56 0 60 0;
#X connect 57 0 58 0;
#X connect 57 0 55 0;
#X connect 58 0 59 0;
#X connect 79 0 14 0;
#X connect 79 0 4 0;
#X connect 80 0 16 0;
#X connect 80 1 81 0;
#X connect 82 0 80 0;
#X connect 83 0 80 0;
#X connect 84 0 4 0;
#X connect 84 0 14 0;
