#N canvas 290 49 941 771 12;
#X obj -26 547 print;
#X msg 326 82 3 \, 4 \, 5;
#X msg 318 55 3 4 5;
#X msg -149 523 3 \$1 5;
#X floatatom -149 496 4 0 0 0 - - -;
#X msg -26 521 \$2 \$1 5;
#X msg -26 496 45 67;
#X floatatom 377 498 4 0 0 0 - - -;
#X floatatom 425 498 4 0 0 0 - - -;
#X floatatom 358 367 4 0 0 0 - - -;
#X obj -149 551 print;
#X obj 356 580 print;
#X floatatom 493 500 4 0 0 0 - - -;
#X msg 356 554 cis \$1 \, boom \$2 \, bah \$3;
#X obj 358 340 receive volume;
#X obj 502 341 receive slider;
#X floatatom 502 407 4 0 0 0 - - -;
#X obj 505 381 hsl 128 15 0 127 0 0 empty empty empty -2 -8 0 10 -262130
-1 -1 0 1;
#X msg 48 490 0.3 67;
#X msg 48 518 \; volume \$1 \; slider \$2;
#X msg 151 527 \; volume \$1 \; slider \$2;
#X msg 151 499 0.3 \$1;
#X floatatom 151 472 5 0 0 0 - - -;
#X obj 356 528 pack float float float;
#X obj -206 20 cnv 15 400 40 empty empty Review-Messages: 20 12 0 24
-262144 -66577 0;
#X msg -119 222 first 1 \, second 2 \, third 3;
#X obj -119 274 route first second third;
#X floatatom -119 301 5 0 0 0 - - -;
#X floatatom -41 301 5 0 0 0 - - -;
#X floatatom 37 301 5 0 0 0 - - -;
#X msg -163 129 1 2 3;
#X obj -163 163 print one_message;
#X obj -22 162 print several_messages;
#X obj -119 340 print 1st;
#X obj 37 338 print 3rd;
#X obj -41 339 print 2nd;
#X obj -88 249 print messages;
#X msg -22 127 1 \, 2 \, 3;
#X msg 339 108 8 \, 4 \, 3 \; slider 13 \, 5 \; volume 0.1 \;;
#X text -199 83 Coma separates several messages in on message box.
;
#X text -184 407 Dollarsigns (\$1 \, \$2 \, etc.) are variables in
a message.;
#X text -166 465 1 variable;
#X text 13 458 2 variables;
#X text 242 28 A semicolon works like the [send] object;
#X text 383 51 <-- one message;
#X text 400 82 <-- three messages;
#X text 437 126 <-- 6 messagens \, 3 sent "wirelessly".;
#X obj 318 171 print message;
#X text 422 171 Check Print on Terminal;
#X obj 358 395 print volume;
#X obj 551 405 print slider;
#X text 262 211 Note that the messages that are preceded by semicolon
do not come out of the message box into the [print message] object.
And please understand that TWO messages were sent to the address "slider":
13 & 5 So \, after a semicolon \, if we have lots of messages separated
by comas \, they are all going to that specified adress.;
#X text 413 581 3 messages \, one variable in each;
#X text 272 455 ============================================================
;
#X text -173 627 ============================================================
;
#X text 274 627 ============================================================
;
#X text 221 -3 ============================================================
;
#X text -189 375 ============================================================
;
#X text 75 673 When a message box carries many messages \, the sending
order is ALWAYS from left to right! Or up to down in the case of semicolons.
;
#X connect 1 0 47 0;
#X connect 2 0 47 0;
#X connect 3 0 10 0;
#X connect 4 0 3 0;
#X connect 5 0 0 0;
#X connect 6 0 5 0;
#X connect 7 0 23 0;
#X connect 8 0 23 1;
#X connect 9 0 49 0;
#X connect 12 0 23 2;
#X connect 13 0 11 0;
#X connect 14 0 9 0;
#X connect 15 0 17 0;
#X connect 17 0 16 0;
#X connect 17 0 50 0;
#X connect 18 0 19 0;
#X connect 21 0 20 0;
#X connect 22 0 21 0;
#X connect 23 0 13 0;
#X connect 25 0 26 0;
#X connect 25 0 36 0;
#X connect 26 0 27 0;
#X connect 26 1 28 0;
#X connect 26 2 29 0;
#X connect 27 0 33 0;
#X connect 28 0 35 0;
#X connect 29 0 34 0;
#X connect 30 0 31 0;
#X connect 37 0 32 0;
#X connect 38 0 47 0;
