#N canvas 733 56 829 998 12;
#X obj 22 22 cnv 15 350 50 empty empty Syntax: 20 25 0 24 -262144 -66577
0;
#X obj 130 183 +;
#X text 164 177 cold;
#X text 97 177 hot;
#X floatatom 130 214 5 0 0 0 - - -;
#X msg 165 148 4;
#X msg 114 148 5;
#X obj 464 200 +;
#X floatatom 464 231 5 0 0 0 - - -;
#X obj 482 158 - 1;
#X obj 425 113 trigger float float;
#X floatatom 425 84 5 0 0 0 - - -;
#X text 27 98 Objects have a cold and hot inlet.;
#X text 315 42 The [trigger] object sends messages from thr right to
left outlets.;
#X text 324 270 messages will first go down a branch (depth first rule)
before going out the other outlet on the left.;
#X msg 78 279 121 \, bla bla \, 944;
#X text 27 326 separate messages will go from the left to right;
#X text 22 370 ============================================================
;
#X msg 220 558 4;
#X msg 209 598 1 oi 3 5;
#X msg 253 495 bang;
#X text 176 496 bang;
#X obj 222 499 bng 15 250 50 0 empty empty empty 17 7 0 10 -262144
-1 -1;
#X msg 220 531 symbol oi;
#X msg 210 624 list um 2;
#X text 170 531 Symbol;
#X text 98 462 Data Types and selectors:;
#X text 60 400 - Messages are formed by atoms \; - Atoms are either
flots or symbols.;
#X text 274 598 (implicit);
#X text 167 611 List;
#X text 250 557 (implicit);
#X text 173 559 float;
#X text 309 370 ============================================================
;
#X text 390 495 selectors are the first atom in a message;
#X text 392 471 Other selectors:;
#X msg 429 565 turn on;
#X msg 429 597 open file4.aif;
#X text 543 598 "open" selector;
#X text 493 565 "turn" selector;
#X text 45 666 ============================================================
;
#X text 332 666 ============================================================
;
#X floatatom 183 863 5 0 0 0 - - -;
#X symbolatom 314 945 15 0 0 0 - - -;
#X msg 183 822 \$3;
#X msg 183 784 list Midi Note 120;
#X msg 129 783 3 2 1;
#X text 77 697 Dollarsigns will acquire values from elements of an
incomming messages. They require selectors \, but ignore the selector
as the first element.;
#X text 445 918 they can be repeated and inserted in symbols;
#X msg 373 799 list Midi Note \$1;
#X floatatom 373 763 5 0 0 0 - - -;
#X obj 373 836 print;
#X msg 315 888 symbol nice;
#X msg 315 919 symbol \$1!_\$1...;
#X text 510 801 you can use them in lists.;
#X connect 1 0 4 0;
#X connect 5 0 1 1;
#X connect 6 0 1 0;
#X connect 7 0 8 0;
#X connect 9 0 7 1;
#X connect 10 0 7 0;
#X connect 10 1 9 0;
#X connect 11 0 10 0;
#X connect 43 0 41 0;
#X connect 44 0 43 0;
#X connect 45 0 43 0;
#X connect 48 0 50 0;
#X connect 49 0 48 0;
#X connect 51 0 52 0;
#X connect 52 0 42 0;
