#N canvas 0 22 450 300 10;
#X obj 49 181 % 4;
#X obj 49 37 tgl 15 0 empty empty empty 17 7 0 10 -262144 -1 -1 0 1
;
#X obj 49 63 metro 1000;
#X obj 49 91 t b b;
#X obj 49 150 + 1;
#X floatatom 79 123 5 0 0 0 - - -, f 5;
#X msg 49 122 1;
#X obj 106 35 inlet time-in-milliseconds;
#X obj 166 56 inlet count-to-x;
#X obj 49 232 outlet count;
#X floatatom 49 203 5 0 0 0 - - -, f 5;
#X obj 49 10 inlet t0ggle-counter;
#X connect 0 0 10 0;
#X connect 1 0 2 0;
#X connect 2 0 3 0;
#X connect 3 0 6 0;
#X connect 3 1 5 0;
#X connect 4 0 0 0;
#X connect 4 0 5 0;
#X connect 5 0 4 1;
#X connect 6 0 4 0;
#X connect 7 0 2 1;
#X connect 8 0 0 1;
#X connect 10 0 9 0;
#X connect 11 0 1 0;
