#N canvas 701 141 660 635 10;
#X obj 83 228 osc~;
#X msg 5 47 \; pd dsp \$1;
#X obj 5 20 tgl 15 0 empty empty empty 17 7 0 10 -262144 -1 -1 0 1
;
#X obj 83 292 *~;
#X obj 175 178 hsl 50 15 0 0.5 0 0 empty empty empty -2 -8 0 10 -262144
-1 -1 4200 1;
#X obj 20 345 send~ VU;
#X obj 83 345 dac~ 1 2;
#X obj 348 155 receive~ VU;
#X obj 348 183 env~;
#X obj 348 210 - 100;
#X obj 349 241 vu 15 120 empty empty -1 -8 0 10 -66577 -1 1 0;
#X msg 172 206 \$1 50;
#X text 115 292 <--- final amplifier stage;
#X floatatom 83 89 5 0 0 0 - - -, f 5;
#X obj 83 201 +~;
#X text 3 88 carrier --->;
#X obj 126 121 osc~;
#X floatatom 126 90 5 0 0 0 - - -, f 5;
#X obj 126 172 *~;
#X floatatom 141 144 5 0 0 0 - - -, f 5;
#X text 166 89 <--- modulator frequency;
#X text 166 119 <--- modulation index;
#X text 179 143 <--- modulation depth;
#X obj 172 228 line~;
#X text 235 177 <--- amplifier;
#X obj 438 3 tgl 15 0 empty empty empty 17 7 0 10 -262144 -1 -1 0 1
;
#X obj 438 31 metro 200;
#X obj 349 60 random 50 125;
#X obj 349 88 s index;
#X obj 170 59 r index;
#X obj 439 60 random 150;
#X obj 439 88 + 275;
#X obj 439 118 s freq;
#X obj 514 118 s amp;
#X obj 126 59 r freq;
#X obj 220 59 r amp;
#X obj 514 59 random 100;
#X obj 514 89 / 100;
#X text 331 -9 generative parameter modulator;
#X text 397 1 --->;
#X connect 0 0 3 0;
#X connect 2 0 1 0;
#X connect 3 0 5 0;
#X connect 3 0 6 0;
#X connect 3 0 6 1;
#X connect 4 0 11 0;
#X connect 7 0 8 0;
#X connect 8 0 9 0;
#X connect 9 0 10 0;
#X connect 11 0 23 0;
#X connect 13 0 14 0;
#X connect 14 0 0 0;
#X connect 16 0 18 0;
#X connect 17 0 16 0;
#X connect 18 0 14 1;
#X connect 19 0 18 1;
#X connect 23 0 3 1;
#X connect 25 0 26 0;
#X connect 26 0 27 0;
#X connect 26 0 30 0;
#X connect 26 0 36 0;
#X connect 27 0 28 0;
#X connect 29 0 19 0;
#X connect 30 0 31 0;
#X connect 31 0 32 0;
#X connect 34 0 17 0;
#X connect 35 0 4 0;
#X connect 36 0 37 0;
#X connect 37 0 33 0;
