#N canvas 903 220 450 300 10;
#X msg 109 110 60000;
#X obj 109 133 /;
#X obj 109 23 inlet;
#X obj 109 187 outlet;
#X floatatom 159 23 5 0 0 0 - - -, f 5;
#X floatatom 130 163 5 0 0 0 - - -, f 5;
#X obj 109 84 t b f;
#X text 161 60 <--- converts to float;
#X text 162 99 <--- milliseconds per minute;
#X text 199 24 <---- sets beats per minute;
#X obj 109 61 f \$1;
#X text 9 8 incoming numbers set bpm --->;
#X connect 0 0 1 0;
#X connect 1 0 3 0;
#X connect 1 0 5 0;
#X connect 2 0 10 0;
#X connect 4 0 10 0;
#X connect 6 0 0 0;
#X connect 6 1 1 1;
#X connect 10 0 6 0;
