#N canvas 961 231 464 482 10;
#X obj 86 247 makenote 60 500;
#X obj 86 286 noteout;
#X obj 86 182 t b b;
#X msg 86 214 50;
#X msg 130 215 70;
#X obj 86 145 spigot;
#X floatatom 28 169 5 0 0 0 - - -, f 5;
#X floatatom 86 57 5 0 0 0 - - -, f 5;
#X obj 66 168 bng 15 250 50 0 empty empty empty 17 7 0 10 -262144 -1
-1;
#X floatatom 86 118 5 0 0 0 - - -, f 5;
#X obj 86 87 < 100;
#X obj 247 227 makenote 60 500;
#X obj 247 266 noteout;
#X obj 247 162 t b b;
#X msg 247 194 50;
#X msg 281 195 70;
#X msg 336 194 60;
#X msg 366 194 67;
#X obj 336 165 t b b;
#X obj 336 133 bng 15 250 50 0 empty empty empty 17 7 0 10 -262144
-1 -1;
#X obj 247 133 bng 15 250 50 0 empty empty empty 17 7 0 10 -262144
-1 -1;
#X obj 247 86 moses 50;
#X floatatom 334 110 5 0 0 0 - - -, f 5;
#X floatatom 259 111 5 0 0 0 - - -, f 5;
#X floatatom 247 61 5 0 0 0 - - -, f 5;
#X obj 126 87 == 100;
#X obj 36 87 == 100;
#X text 131 145 if statement;
#X text 312 86 if else statement;
#X connect 0 0 1 0;
#X connect 0 1 1 1;
#X connect 2 0 3 0;
#X connect 2 1 4 0;
#X connect 3 0 0 0;
#X connect 4 0 0 0;
#X connect 5 0 6 0;
#X connect 5 0 2 0;
#X connect 5 0 8 0;
#X connect 7 0 10 0;
#X connect 9 0 5 0;
#X connect 9 0 5 1;
#X connect 10 0 9 0;
#X connect 11 0 12 0;
#X connect 11 1 12 1;
#X connect 13 0 14 0;
#X connect 13 1 15 0;
#X connect 14 0 11 0;
#X connect 15 0 11 0;
#X connect 16 0 11 0;
#X connect 17 0 11 0;
#X connect 18 0 16 0;
#X connect 18 1 17 0;
#X connect 19 0 18 0;
#X connect 20 0 13 0;
#X connect 21 0 20 0;
#X connect 21 0 23 0;
#X connect 21 1 19 0;
#X connect 21 1 22 0;
#X connect 24 0 21 0;
