#N canvas 559 22 755 769 10;
#X obj 8 -17 tgl 15 0 empty empty empty 17 7 0 10 -262144 -1 -1 0 1
;
#X msg 8 9 \; pd dsp \$1;
#X obj 9 61 bng 15 250 50 0 empty empty empty 17 7 0 10 -262144 -1
-1;
#X msg 9 114 read -resize \$1 leftChannel rightChannel;
#X obj 9 137 soundfiler;
#X obj 10 165 r~ toVU1;
#X obj 10 192 env~;
#X obj 70 192 env~;
#X obj 10 224 - 100;
#X obj 11 260 vu 15 120 empty empty -1 -8 0 10 -66577 -1 1 0;
#X obj 70 224 - 100;
#X obj 71 260 vu 15 120 empty empty -1 -8 0 10 -66577 -1 1 0;
#X obj 378 -20 bng 15 250 50 0 empty empty empty 17 7 0 10 -262144
-1 -1;
#X obj 378 24 tabplay~ leftChannel;
#X obj 399 44 tabplay~ rightChannel;
#X obj 378 242 *~;
#X obj 399 222 *~;
#X obj 408 699 dac~;
#X obj 414 193 line;
#X obj 417 152 hsl 70 15 0 1 0 0 empty empty empty -2 -8 0 10 -262144
-1 -1 0 1;
#X obj 412 103 spigot;
#X obj 445 79 tgl 15 0 empty empty empty 17 7 0 10 -262144 -1 -1 0
1;
#X text 464 77 loop;
#N canvas 0 22 450 300 (subpatch) 0;
#X array leftChannel 40030 float 2;
#X coords 0 1 40030 -1 200 140 1;
#X restore 12 408 graph;
#N canvas 0 22 450 300 (subpatch) 0;
#X array rightChannel 40030 float 2;
#X coords 0 1 40030 -1 200 140 1;
#X restore 12 568 graph;
#X obj 436 260 s~ toVU1;
#X obj 459 240 s~ toVU2;
#X obj 70 165 r~ toVU2;
#X obj 9 85 openpanel;
#X text 409 131 volume (0 - 1);
#X msg 414 172 \$1 50;
#X floatatom 486 570 5 0 0 0 - - -;
#X obj 454 593 hip~;
#X obj 465 613 hip~;
#X floatatom 337 565 5 0 0 0 - - -;
#X obj 350 628 bp~;
#X obj 330 608 bp~;
#X floatatom 365 587 5 0 100 0 - - -;
#X obj 308 465 vcf~;
#X obj 338 485 vcf~;
#X obj 349 408 sig~;
#X floatatom 349 377 5 0 0 0 - - -;
#X floatatom 359 437 5 0 0 0 - - -;
#X text 384 408 shelf;
#X text 398 437 q;
#X floatatom 510 444 5 0 0 0 - - -;
#X obj 468 467 lop~;
#X obj 489 487 lop~;
#X text 549 443 shelf;
#X text 375 563 shelf;
#X text 405 585 q;
#X text 525 569 shelf;
#X text 321 535 BAND PASS;
#X text 311 331 VOLTAGE CONTROLLED;
#X text 451 535 HIGH PASS;
#X text 461 405 LOW PASS;
#X text 338 352 BAND PASS;
#X obj 491 328 hsl 128 15 0 4000 0 0 empty empty empty -2 -8 0 10 -262144
-1 -1 0 1;
#X obj 491 368 hsl 128 15 0 100 0 0 empty empty empty -2 -8 0 10 -262144
-1 -1 0 1;
#X text 484 308 filter shelf;
#X text 486 346 resonance / q;
#X connect 0 0 1 0;
#X connect 2 0 28 0;
#X connect 3 0 4 0;
#X connect 5 0 6 0;
#X connect 6 0 8 0;
#X connect 7 0 10 0;
#X connect 8 0 9 0;
#X connect 10 0 11 0;
#X connect 12 0 13 0;
#X connect 12 0 14 0;
#X connect 13 0 15 0;
#X connect 13 1 20 0;
#X connect 14 0 16 0;
#X connect 15 0 25 0;
#X connect 16 0 26 0;
#X connect 18 0 16 1;
#X connect 18 0 15 1;
#X connect 19 0 30 0;
#X connect 20 0 12 0;
#X connect 21 0 20 1;
#X connect 27 0 7 0;
#X connect 28 0 3 0;
#X connect 30 0 18 0;
#X connect 31 0 32 1;
#X connect 31 0 33 1;
#X connect 34 0 35 1;
#X connect 34 0 36 1;
#X connect 37 0 35 2;
#X connect 37 0 36 2;
#X connect 40 0 38 1;
#X connect 40 0 39 1;
#X connect 41 0 40 0;
#X connect 42 0 39 2;
#X connect 42 0 38 2;
#X connect 45 0 46 1;
#X connect 45 0 47 1;
#X connect 57 0 45 0;
#X connect 57 0 41 0;
#X connect 57 0 31 0;
#X connect 57 0 34 0;
#X connect 58 0 42 0;
#X connect 58 0 37 0;
