#N canvas 847 214 464 412 10;
#X msg 82 42 poll;
#X obj 82 70 MouseState;
#X floatatom 96 123 5 0 0 0 - - -;
#X floatatom 110 99 5 0 0 0 - - -;
#X obj 81 283 dac~;
#X obj 96 151 osc~;
#X obj 81 180 *~;
#X obj 81 241 *~;
#X floatatom 144 213 5 0 0 0 - - -;
#X obj 144 184 + 1;
#X obj 144 151 / -899;
#X obj 22 69 adc~;
#X connect 0 0 1 0;
#X connect 1 1 2 0;
#X connect 1 2 3 0;
#X connect 2 0 5 0;
#X connect 3 0 10 0;
#X connect 5 0 6 1;
#X connect 6 0 7 0;
#X connect 7 0 4 0;
#X connect 7 0 4 1;
#X connect 9 0 7 1;
#X connect 9 0 8 0;
#X connect 10 0 9 0;
