#N canvas 853 22 755 769 10;
#X obj 8 -17 tgl 15 0 empty empty empty 17 7 0 10 -262144 -1 -1 1 1
;
#X msg 8 9 \; pd dsp \$1;
#X obj 9 61 bng 15 250 50 0 empty empty empty 17 7 0 10 -262144 -1
-1;
#X msg 9 114 read -resize \$1 leftChannel rightChannel;
#X obj 9 137 soundfiler;
#X obj 10 165 r~ toVU1;
#X obj 10 192 env~;
#X obj 70 192 env~;
#X obj 10 224 - 100;
#X obj 11 260 vu 15 120 empty empty -1 -8 0 10 -66577 -1 1 0;
#X obj 70 224 - 100;
#X obj 71 260 vu 15 120 empty empty -1 -8 0 10 -66577 -1 1 0;
#X obj 298 -20 bng 15 250 50 0 empty empty empty 17 7 0 10 -262144
-1 -1;
#X obj 298 24 tabplay~ leftChannel;
#X obj 319 44 tabplay~ rightChannel;
#X obj 298 242 *~;
#X obj 319 222 *~;
#X obj 301 699 dac~;
#X obj 334 193 line;
#X obj 337 152 hsl 70 15 0 1 0 0 empty empty empty -2 -8 0 10 -262144
-1 -1 0 1;
#X obj 332 103 spigot;
#X obj 365 79 tgl 15 0 empty empty empty 17 7 0 10 -262144 -1 -1 1
1;
#X text 384 77 loop;
#N canvas 0 22 450 300 (subpatch) 0;
#X array leftChannel 40030 float 2;
#X coords 0 1 40030 -1 200 140 1;
#X restore 12 408 graph;
#N canvas 0 22 450 300 (subpatch) 0;
#X array rightChannel 40030 float 2;
#X coords 0 1 40030 -1 200 140 1;
#X restore 12 568 graph;
#X obj 356 260 s~ toVU1;
#X obj 379 240 s~ toVU2;
#X obj 70 165 r~ toVU2;
#X obj 9 85 openpanel;
#X text 329 131 volume (0 - 1);
#X msg 334 172 \$1 50;
#X obj 299 367 freeverb~;
#X msg 368 319 wet \$1;
#X obj 371 291 hsl 40 15 0 1 0 0 empty empty empty -2 -8 0 10 -262144
-1 -1 2900 1;
#X obj 431 291 hsl 40 15 0 1 0 0 empty empty empty -2 -8 0 10 -262144
-1 -1 0 1;
#X msg 428 319 dry \$1;
#X obj 491 291 hsl 40 15 0 1 0 0 empty empty empty -2 -8 0 10 -262144
-1 -1 3900 1;
#X msg 488 319 roomsize \$1;
#X obj 299 419 delwrite~ delayL 2500;
#X obj 309 399 delwrite~ delayR 3500;
#X obj 300 489 delread~ delayL 1500;
#X obj 321 509 delread~ delayR 1300;
#X obj 330 577 sig~;
#X obj 370 577 sig~;
#X floatatom 330 532 5 0 0 0 - - -;
#X floatatom 370 532 5 0 0 0 - - -;
#X obj 330 609 vd~ delayL 2500;
#X obj 370 629 vd~ delayR 2300;
#X connect 0 0 1 0;
#X connect 2 0 28 0;
#X connect 3 0 4 0;
#X connect 5 0 6 0;
#X connect 6 0 8 0;
#X connect 7 0 10 0;
#X connect 8 0 9 0;
#X connect 10 0 11 0;
#X connect 12 0 13 0;
#X connect 12 0 14 0;
#X connect 13 0 15 0;
#X connect 13 1 20 0;
#X connect 14 0 16 0;
#X connect 15 0 25 0;
#X connect 15 0 31 0;
#X connect 16 0 26 0;
#X connect 16 0 31 1;
#X connect 18 0 16 1;
#X connect 18 0 15 1;
#X connect 19 0 30 0;
#X connect 20 0 12 0;
#X connect 21 0 20 1;
#X connect 27 0 7 0;
#X connect 28 0 3 0;
#X connect 30 0 18 0;
#X connect 31 0 38 0;
#X connect 31 1 39 0;
#X connect 32 0 31 0;
#X connect 33 0 32 0;
#X connect 34 0 35 0;
#X connect 35 0 31 0;
#X connect 36 0 37 0;
#X connect 37 0 31 0;
#X connect 40 0 17 0;
#X connect 41 0 17 1;
#X connect 42 0 46 0;
#X connect 43 0 47 0;
#X connect 44 0 42 0;
#X connect 45 0 43 0;
#X connect 46 0 17 0;
#X connect 47 0 17 1;
