#N canvas 214 78 741 733 10;
#X obj -168 12 tgl 15 0 empty empty empty 17 7 0 10 -262144 -1 -1 0
1;
#X msg -168 37 \; pd dsp \$1;
#X obj 133 579 dac~ 1 2;
#X obj 239 499 vsl 20 50 0 0.7 0 0 empty empty empty 0 -9 0 10 -228856
-1 -1 2700 1;
#X obj 133 550 *~;
#X obj 178 550 *~;
#N canvas 0 22 450 300 (subpatch) 0;
#X array L 8405 float 0;
#X coords 0 1 8404 -1 200 140 1;
#X restore 362 17 graph;
#N canvas 0 22 450 300 (subpatch) 0;
#X array R 8405 float 2;
#X coords 0 1 8405 -1 200 140 1;
#X restore 362 177 graph;
#X obj 132 13 bng 15 250 50 0 empty empty empty 17 7 0 10 -262144 -1
-1;
#X obj 132 41 openpanel;
#X msg 132 71 read -resize \$1 L R;
#X obj 132 101 soundfiler;
#X floatatom 244 118 10 0 0 0 - - -;
#X obj 132 138 expr 44100 / $f1;
#X obj 244 139 s sampleSize;
#X obj 132 255 phasor~;
#X obj 132 291 *~;
#X obj 183 274 r sampleSize;
#X obj 132 342 tabread4~ L;
#X obj 211 341 tabread4~ R;
#X obj 12 342 snapshot~;
#X obj 12 310 metro 50;
#X obj 12 286 tgl 15 0 empty empty empty 17 7 0 10 -262144 -1 -1 1
1;
#X obj 365 351 hsl 195 15 0 1 0 0 empty empty empty -2 -8 0 10 -262144
-1 -1 0 1;
#X floatatom 12 368 5 0 0 0 - - -;
#X obj 12 397 /;
#X obj 48 367 r sampleSize;
#X floatatom 12 428 5 0 0 0 - - -;
#X obj 174 223 hsl 128 15 -1 1 0 0 empty empty empty -2 -8 0 10 -262144
-1 -1 0 1;
#X floatatom 171 169 5 0 0 0 - - -;
#X text 228 252 playback speed;
#X text 277 512 gain staging;
#X text 199 40 browse for files on HD;
#X text 203 99 converts file to samples;
#X text 6 138 takes sample size;
#X text -168 341 where is the sample in time;
#X text -170 311 triggers "camera" / snapshot;
#X floatatom 190 254 5 0 0 0 - - -;
#X text 69 255 playback;
#X text 201 195 stores original speed;
#X msg 171 196 $f1;
#N canvas 125 210 450 300 plus20 1;
#X obj 109 76 inlet;
#X obj 110 194 outlet;
#X obj 109 113 + 2;
#X restore -77 542 pd plus20;
#X connect 0 0 1 0;
#X connect 3 0 5 1;
#X connect 3 0 4 1;
#X connect 4 0 2 0;
#X connect 5 0 2 1;
#X connect 8 0 9 0;
#X connect 9 0 10 0;
#X connect 10 0 11 0;
#X connect 11 0 12 0;
#X connect 11 0 13 0;
#X connect 12 0 14 0;
#X connect 13 0 15 0;
#X connect 13 0 29 0;
#X connect 15 0 16 0;
#X connect 16 0 19 0;
#X connect 16 0 18 0;
#X connect 16 0 20 0;
#X connect 17 0 16 1;
#X connect 18 0 4 0;
#X connect 19 0 5 0;
#X connect 20 0 24 0;
#X connect 21 0 20 0;
#X connect 22 0 21 0;
#X connect 24 0 25 0;
#X connect 25 0 27 0;
#X connect 26 0 25 1;
#X connect 27 0 23 0;
#X connect 28 0 37 0;
#X connect 28 0 15 0;
#X connect 29 0 40 0;
#X connect 40 0 28 0;
