#N canvas 673 45 639 758 10;
#X obj 62 35 tgl 15 0 empty empty empty 17 7 0 10 -262144 -1 -1 0 1
;
#X obj 62 61 metro 150;
#X floatatom 113 34 5 0 0 0 - - -;
#X obj 62 97 f;
#X obj 97 96 + 1;
#X floatatom 62 128 5 0 0 0 - - -;
#X obj 62 192 hradio 15 1 0 16 empty empty empty 0 -8 0 10 -262144
-1 -1 2;
#X obj 63 322 f;
#X obj 93 322 f;
#X obj 123 322 f;
#X obj 153 322 f;
#X obj 183 322 f;
#X obj 213 322 f;
#X obj 243 322 f;
#X obj 273 322 f;
#X obj 62 658 dac~;
#X obj 303 322 f;
#X obj 333 322 f;
#X obj 363 322 f;
#X obj 393 322 f;
#X obj 423 322 f;
#X obj 453 322 f;
#X obj 483 322 f;
#X obj 513 322 f;
#X obj 192 30 loadbang;
#X obj 192 99 soundfiler;
#N canvas 0 22 450 300 (subpatch) 0;
#X array sample1 44104 float 0;
#X coords 0 1.02 44103 -1.02 200 130 1 0 0;
#X restore 321 111 graph;
#X msg 6 494 44100;
#X msg 266 430 bang;
#X msg 41 470 stop;
#X msg 71 446 set sample1;
#X obj 2 343 loadbang;
#X obj 2 377 delay 100;
#X msg 192 57 read /Users/CuneiMedia/Desktop/InteractiveAudioPd/004.wav
sample1;
#X obj 71 594 tabplay~;
#X obj 62 159 % 16;
#X obj 62 231 sel 0 1 2 3 4 5 6 7 8 9 10 11 12 13 14 15;
#X obj 78 297 tgl 15 0 empty empty empty 17 7 0 10 -262144 -1 -1 0
1;
#X obj 108 297 tgl 15 0 empty empty empty 17 7 0 10 -262144 -1 -1 0
1;
#X obj 138 297 tgl 15 0 empty empty empty 17 7 0 10 -262144 -1 -1 0
1;
#X obj 168 297 tgl 15 0 empty empty empty 17 7 0 10 -262144 -1 -1 0
1;
#X obj 198 297 tgl 15 0 empty empty empty 17 7 0 10 -262144 -1 -1 0
1;
#X obj 228 297 tgl 15 0 empty empty empty 17 7 0 10 -262144 -1 -1 0
1;
#X obj 258 297 tgl 15 0 empty empty empty 17 7 0 10 -262144 -1 -1 0
1;
#X obj 288 297 tgl 15 0 empty empty empty 17 7 0 10 -262144 -1 -1 0
1;
#X obj 318 297 tgl 15 0 empty empty empty 17 7 0 10 -262144 -1 -1 0
1;
#X obj 348 297 tgl 15 0 empty empty empty 17 7 0 10 -262144 -1 -1 0
1;
#X obj 378 297 tgl 15 0 empty empty empty 17 7 0 10 -262144 -1 -1 0
1;
#X obj 408 297 tgl 15 0 empty empty empty 17 7 0 10 -262144 -1 -1 0
1;
#X obj 438 297 tgl 15 0 empty empty empty 17 7 0 10 -262144 -1 -1 0
1;
#X obj 468 297 tgl 15 0 empty empty empty 17 7 0 10 -262144 -1 -1 0
1;
#X obj 498 297 tgl 15 0 empty empty empty 17 7 0 10 -262144 -1 -1 0
1;
#X obj 528 297 tgl 15 0 empty empty empty 17 7 0 10 -262144 -1 -1 0
1;
#X obj 204 494 bng 15 250 50 0 empty empty empty 17 7 0 10 -262144
-1 -1;
#X connect 0 0 1 0;
#X connect 1 0 3 0;
#X connect 2 0 1 1;
#X connect 3 0 4 0;
#X connect 3 0 5 0;
#X connect 4 0 3 1;
#X connect 5 0 35 0;
#X connect 6 0 36 0;
#X connect 7 0 28 0;
#X connect 8 0 28 0;
#X connect 9 0 28 0;
#X connect 10 0 28 0;
#X connect 11 0 28 0;
#X connect 12 0 28 0;
#X connect 13 0 28 0;
#X connect 14 0 28 0;
#X connect 16 0 28 0;
#X connect 17 0 28 0;
#X connect 18 0 28 0;
#X connect 19 0 28 0;
#X connect 20 0 28 0;
#X connect 21 0 28 0;
#X connect 22 0 28 0;
#X connect 23 0 28 0;
#X connect 24 0 33 0;
#X connect 27 0 34 0;
#X connect 28 0 53 0;
#X connect 29 0 34 0;
#X connect 30 0 34 0;
#X connect 31 0 32 0;
#X connect 32 0 30 0;
#X connect 32 0 29 0;
#X connect 32 0 28 0;
#X connect 32 0 27 0;
#X connect 33 0 25 0;
#X connect 34 0 15 0;
#X connect 34 0 15 1;
#X connect 35 0 6 0;
#X connect 36 0 7 0;
#X connect 36 1 8 0;
#X connect 36 2 9 0;
#X connect 36 3 10 0;
#X connect 36 4 11 0;
#X connect 36 5 12 0;
#X connect 36 6 13 0;
#X connect 36 7 14 0;
#X connect 36 8 16 0;
#X connect 36 9 17 0;
#X connect 36 10 18 0;
#X connect 36 11 19 0;
#X connect 36 12 20 0;
#X connect 36 13 21 0;
#X connect 36 14 22 0;
#X connect 36 15 23 0;
#X connect 37 0 7 1;
#X connect 38 0 8 1;
#X connect 39 0 9 1;
#X connect 40 0 10 1;
#X connect 41 0 11 1;
#X connect 42 0 12 1;
#X connect 43 0 13 1;
#X connect 44 0 14 1;
#X connect 45 0 16 1;
#X connect 46 0 17 1;
#X connect 47 0 18 1;
#X connect 48 0 19 1;
#X connect 49 0 20 1;
#X connect 50 0 21 1;
#X connect 51 0 22 1;
#X connect 52 0 23 1;
#X connect 53 0 34 0;
