#N canvas 458 79 981 724 10;
#X msg 11 -133 \; pd dsp \$1;
#X obj 11 -157 tgl 15 0 empty empty empty 17 7 0 10 -262144 -1 -1 0
1;
#N canvas 0 22 450 278 (subpatch) 0;
#X array pitches_2 11 float 1;
#A 0 60 62 63 65 67 68 70 72 0.1 0.428571 0.371428;
#X coords 0 127 10 0 200 140 1;
#X restore 289 -129 graph;
#X msg 117 -84 0;
#X floatatom 12 -82 5 0 0 0 - - -, f 5;
#X obj 12 -57 tabwrite pitches_2;
#X obj 402 186 tabread pitches_2;
#X floatatom 402 215 5 0 0 0 - - -, f 5;
#X obj 402 339 noteout 1;
#X obj 402 154 counter;
#X obj 402 123 tgl 15 0 empty empty empty 17 7 0 10 -262144 -1 -1 0
1;
#X floatatom 425 122 5 0 0 0 - - -, f 5;
#X floatatom 461 122 5 0 0 0 - - -, f 5;
#X text 9 126 resize array length;
#X text 9 186 bounds (left \, top \, right \, bottom);
#X msg 11 265 \; pitches_2 xticks 0 0.5 2.5;
#X text 9 366 x-axis labels (start \, label1 \, label2 \, ... \, labelx)
;
#X msg 11 144 \; pitches_2 resize 11;
#X text 10 21 TABLE MESSAGING CONVENTIONS;
#X text 9 306 y-axis demarcations (start \, interval \, regularity
of divisor);
#X text 9 246 x-axis demarcations (start \, interval \, regularity
of divisor);
#X text 10 31 ____________________________;
#X text 10 1 ____________________________;
#X msg 10 87 \; pitches_2 0 60 62 63 65 67 68 70 72;
#X msg 11 205 \; pitches_2 bounds 0 127 10 0;
#X msg 11 325 \; pitches_2 yticks 0 10 2;
#X msg 11 385 \; pitches_2 xlabel 0 1 2 3 4 5 6 7 8 9 10;
#X msg 11 455 \; pitches_2 ylabel -0.5 10 20 30 40 50 60 70 80 90 100
110 120;
#X obj 402 305 makenote 64 450;
#X text 9 66 set values of array (start point in sequence \, value
in seq);
#X obj 12 -27 table pitches_2;
#X text 9 426 y-axis labels (start point in sequence \, label1 \, label2
\, label3 \, ... \, labelx);
#X text 152 -84 table index;
#X text 400 81 ____________________________;
#X text 400 51 ____________________________;
#X text 400 71 STEP THROUGH SEQUENCE IN TABLE;
#X connect 1 0 0 0;
#X connect 3 0 5 1;
#X connect 4 0 5 0;
#X connect 6 0 7 0;
#X connect 7 0 28 0;
#X connect 9 0 6 0;
#X connect 10 0 9 0;
#X connect 11 0 9 1;
#X connect 12 0 9 2;
#X connect 28 0 8 0;
#X connect 28 1 8 1;
