#N canvas 926 164 632 677 10;
#X declare -lib mrpeach;
#X floatatom 162 178 5 0 0 0 - - -;
#X obj 109 117 print;
#X floatatom 234 174 5 0 0 0 - - -;
#X floatatom 304 174 5 0 0 0 - - -;
#X floatatom 374 176 5 0 0 0 - - -;
#X obj 162 94 unpackOSC;
#X obj 162 118 routeOSC /1;
#X obj 162 145 routeOSC /fader1 /fader2 /fader3 /fader4;
#X obj 162 69 udpreceive 8000;
#X obj 162 28 import mrpeach;
#X msg 290 427 connect 127.0.0.1 9997;
#X obj 162 465 udpsend;
#X obj 162 489 tgl 15 0 empty empty connected 20 7 0 8 -24198 -241291
-1 0 1;
#X msg 290 447 disconnect;
#X text 7 287 SENDING UDP;
#X text 7 67 RECEIVING UDP;
#X obj 162 409 packOSC;
#X msg 162 288 send /fader1 \$1;
#X msg 182 308 send /fader2 \$1;
#X msg 202 328 send /fader3 \$1;
#X msg 222 348 send /fader4 \$1;
#X text 7 27 IMPORTING LIBRARY;
#X connect 0 0 17 0;
#X connect 2 0 18 0;
#X connect 3 0 19 0;
#X connect 4 0 20 0;
#X connect 5 0 1 0;
#X connect 5 0 6 0;
#X connect 6 0 7 0;
#X connect 7 0 0 0;
#X connect 7 1 2 0;
#X connect 7 2 3 0;
#X connect 7 3 4 0;
#X connect 8 0 5 0;
#X connect 10 0 11 0;
#X connect 11 0 12 0;
#X connect 13 0 11 0;
#X connect 16 0 11 0;
#X connect 17 0 16 0;
#X connect 18 0 16 0;
#X connect 19 0 16 0;
#X connect 20 0 16 0;
