#N canvas 926 164 450 300 10;
#X declare -lib mrpeach;
#X floatatom 82 176 5 0 0 0 - - -;
#X obj 25 114 print;
#X floatatom 154 174 5 0 0 0 - - -;
#X floatatom 224 174 5 0 0 0 - - -;
#X floatatom 294 176 5 0 0 0 - - -;
#X obj 82 94 unpackOSC;
#X obj 82 118 routeOSC /1;
#X obj 82 145 routeOSC /fader1 /fader2 /fader3 /fader4;
#X obj 82 69 udpreceive 8000;
#X obj 50 28 import mrpeach;
#X connect 5 0 1 0;
#X connect 5 0 6 0;
#X connect 6 0 7 0;
#X connect 7 0 0 0;
#X connect 7 1 2 0;
#X connect 7 2 3 0;
#X connect 7 3 4 0;
#X connect 8 0 5 0;
