#N canvas 521 59 560 458 12;
#X obj 73 200 list prepend;
#X floatatom 73 160 5 0 0 0 - - -;
#X obj 73 262 print;
#X obj -88 17 cnv 15 400 40 empty empty Generate_Lists: 20 12 0 24
-262144 -66577 0;
#X obj 154 160 bng 15 250 50 0 empty empty empty 17 7 0 10 -262144
-1 -1;
#X obj 201 233 l;
#X text -55 81 With [list prepend] \, we can generate lists from a
series of elements. Move the atom box and see it.;
#X text 178 157 Reset;
#X text 6 323 The [lister] or [l] object is just use to feed the list
back into [list prepend].;
#X connect 0 0 2 0;
#X connect 0 0 5 0;
#X connect 1 0 0 0;
#X connect 4 0 0 1;
#X connect 5 0 0 1;
