#N canvas 802 35 713 615 12;
#X obj 47 279 lister;
#X obj 47 174 bng 15 250 50 0 empty empty empty 17 7 0 10 -261234 -1
-1;
#X obj -55 21 cnv 15 400 40 empty empty List-Split: 20 12 0 24 -262144
-66577 0;
#X obj 295 282 list length;
#X msg 122 182 10 20 30 40 50 60;
#X obj 122 150 loadbang;
#X obj 295 321 - 1;
#X obj 228 357 list split;
#X obj 325 138 route bang;
#X obj 123 247 trigger list list;
#X text -40 90 Now we do the opposite \, lets cut the last element.
;
#X obj 261 419 nbx 5 14 -1e+37 1e+37 0 0 empty empty empty 0 -8 0 10
-4032 -1 -1 30 256;
#X msg 421 182 zero-elements;
#X obj 392 230 print Rest-Of-List;
#X text 78 493 We just change the outlets connection \, but use the
[list length] to cut the list at its length minus one element.;
#X text -1 171 click;
#X text 122 447 Basically \, we're reading the list backwards;
#X connect 0 0 7 0;
#X connect 1 0 0 0;
#X connect 3 0 6 0;
#X connect 4 0 9 0;
#X connect 5 0 4 0;
#X connect 6 0 7 1;
#X connect 7 0 8 0;
#X connect 7 1 11 0;
#X connect 8 0 4 0;
#X connect 8 0 12 0;
#X connect 8 1 9 0;
#X connect 8 1 13 0;
#X connect 9 0 0 1;
#X connect 9 1 3 0;
#X connect 12 0 13 0;
