#N canvas 686 74 1002 629 10;
#X obj -464 70 loadbang;
#X obj -774 433 cnv 15 240 120 empty empty empty 20 12 0 14 -187246
-66577 0;
#X obj -774 337 cnv 15 150 95 empty empty empty 20 12 0 14 -228856
-66577 0;
#X obj -774 294 cnv 15 150 42 empty empty empty 20 12 0 14 -187246
-66577 0;
#X obj -774 251 cnv 15 150 42 empty empty empty 20 12 0 14 -228856
-66577 0;
#X obj -774 188 cnv 15 150 62 empty empty empty 20 12 0 14 -187246
-66577 0;
#X obj -774 79 cnv 15 150 45 empty empty empty 20 12 0 14 -187246 -66577
0;
#X obj -774 122 cnv 15 150 65 empty empty empty 20 12 0 14 -233017
-66577 0;
#X obj -758 143 f;
#X obj -758 84 tgl 15 0 empty empty empty 0 -6 0 10 -261234 -1 -1 1
1;
#X obj -730 148 + 1;
#X text -706 60 Tempo;
#X obj -769 12 cnv 15 315 40 empty empty Sequencer: 20 12 0 24 -262144
-66577 0;
#X obj -323 216 cnv 15 400 140 empty empty empty 20 12 0 14 -261682
-66577 0;
#X obj -758 103 metro 155;
#X msg -328 98 0 -12 5.33 7 -9 -2 12 7 -3 5 5.5 -7 3.16 7 -2 0 8.6
;
#X obj -707 85 nbx 5 14 40 1000 0 0 empty empty empty 0 -8 0 10 -204786
-1 -1 197 256;
#X obj 76 219 vsl 23 136 -14.5 14.5 0 0 niente hslider empty 0 -9 0
10 -244975 -1 -1 5121 1;
#X obj -218 529 pack f f;
#X obj -324 382 hradio 25 1 0 16 niente note empty 0 -8 0 10 -245038
-1 -1 13;
#X floatatom 83 395 6 0 0 0 - - -;
#X floatatom -324 418 2 0 0 0 - - -;
#X msg -465 100 ylabel -0.5 12 0 -12;
#X obj -689 142 bng 15 250 50 0 empty empty restart 20 7 0 10 -261234
-1 -1;
#X obj -324 357 hradio 25 1 0 16 x tempo empty 0 -8 0 10 -204786 -1
-1 14;
#X obj -348 472 spigot;
#X obj -315 445 tgl 15 0 empty empty empty 17 7 0 10 -232576 -1 -1
0 1;
#X floatatom -349 418 2 0 0 0 - - -;
#X obj 76 140 metro 100;
#X obj 76 165 random 29;
#X obj 76 191 - 14.5;
#X obj 76 116 tgl 15 0 empty empty empty 17 7 0 10 -260097 -1 -1 0
1;
#X floatatom 127 115 5 0 0 0 - - -;
#X obj -218 502 f;
#X obj -278 473 spigot;
#X text -297 446 *;
#X text 53 96 Random;
#X floatatom -758 276 5 0 0 0 - - -;
#X floatatom -758 319 5 0 0 0 - - -;
#X floatatom -758 170 5 0 0 0 - - -;
#X floatatom -758 232 5 0 0 0 - - -;
#X obj -758 297 + 60;
#X obj -758 340 mtof;
#X floatatom -758 361 5 0 0 0 - - -;
#X obj -766 528 dac~;
#X obj -758 444 osc~;
#X obj -758 191 mod 16;
#X obj -758 494 *~;
#X obj -717 466 hsl 128 15 0 1 0 1 empty empty empty -2 -6 0 10 -262130
-1 -1 7400 0;
#X obj -720 509 line~;
#X obj -714 311 nbx 5 14 40 80 0 0 empty empty empty 0 -8 0 10 -204800
-1 -1 71 256;
#X obj -758 409 line~;
#X msg -720 486 \$1 10;
#X obj -758 389 pack f 5;
#X obj -691 383 nbx 5 14 5 1000 0 0 empty empty empty 0 -8 0 10 -203904
-1 -1 80 256;
#X obj -710 231 s tempo;
#X obj -758 211 t f f;
#X msg -725 125 0;
#X msg -540 129 \; pd dsp 1 \; hslider set 0;
#X obj -328 70 bng 15 250 50 0 empty empty reset 20 7 0 10 -261234
-1 -1;
#X obj -278 440 trigger bang float;
#N canvas 0 22 450 300 (subpatch) 0;
#X array Melody 16 float 3;
#A 0 7.49919 -10.5001 -2.50044 12.5001 4.50037 6.5003 -8.50022 -14.5
-12.5001 -5.49926 -11.499 8.50022 -11.499 -3.49933 -0.500519 -12.5001
;
#X coords 0 15 16 -15 400 140 1;
#X restore -324 217 graph;
#X text -769 61 on/off;
#X text -616 94 Control;
#X text -616 149 Counter;
#X text -617 192 In Sequence (0 to 15);
#X text -616 264 Reads sequence from array;
#X text -614 301 Adds a transposition value;
#X text -618 314 value is frequency in MIDI;
#X text -621 347 [mtof] Converts MIDI to Hertz;
#X text -621 376 [line~] avoids clicks;
#X text -618 400 and generates portamento;
#X text -725 442 Sine Wave;
#X text -720 531 audio output;
#X text -668 485 Gain Control;
#X obj -451 140 send Melody;
#X obj -758 255 tabread Melody;
#X msg -218 571 \; Melody \$2 \$1;
#X text -267 67 (send values to array);
#X text -189 159 v-silder changes value on array defined;
#X text -189 177 by bottom h-radio. [random] changes it;
#X obj 53 117 bng 15 250 50 0 empty empty empty 17 7 0 10 -260097 -1
-1;
#X text -106 194 randomly;
#X text -424 418 top h-radio;
#X text -304 416 bottom h-radio;
#X text -619 229 sends to top (green) h-radio;
#X text -471 13 Array stores data sequence to be used as a "melody".
A [metro] and a counter reads the sequence.;
#X text -413 504 * toggle connects top h-radio;
#X text -424 522 to bottom h-radio. This writes;
#X text -411 539 slider values onto array;
#X text -439 559 (useful when random toggle is on);
#X text -210 551 Slider value & index from bottom h-radio go to array
;
#X connect 0 0 58 0;
#X connect 0 0 15 0;
#X connect 0 0 22 0;
#X connect 8 0 10 0;
#X connect 8 0 39 0;
#X connect 9 0 14 0;
#X connect 10 0 8 1;
#X connect 14 0 8 0;
#X connect 15 0 75 0;
#X connect 16 0 14 1;
#X connect 17 0 20 0;
#X connect 18 0 77 0;
#X connect 19 0 21 0;
#X connect 20 0 33 0;
#X connect 21 0 60 0;
#X connect 22 0 75 0;
#X connect 23 0 57 0;
#X connect 24 0 27 0;
#X connect 25 0 19 0;
#X connect 26 0 25 1;
#X connect 26 0 34 1;
#X connect 27 0 25 0;
#X connect 28 0 29 0;
#X connect 29 0 30 0;
#X connect 30 0 17 0;
#X connect 31 0 28 0;
#X connect 32 0 28 1;
#X connect 33 0 18 0;
#X connect 34 0 33 0;
#X connect 37 0 41 0;
#X connect 38 0 42 0;
#X connect 39 0 46 0;
#X connect 40 0 76 0;
#X connect 41 0 38 0;
#X connect 42 0 43 0;
#X connect 43 0 53 0;
#X connect 45 0 47 0;
#X connect 46 0 56 0;
#X connect 47 0 44 0;
#X connect 47 0 44 1;
#X connect 48 0 52 0;
#X connect 49 0 47 1;
#X connect 50 0 41 1;
#X connect 51 0 45 0;
#X connect 52 0 49 0;
#X connect 53 0 51 0;
#X connect 54 0 53 1;
#X connect 56 0 40 0;
#X connect 56 1 55 0;
#X connect 57 0 8 1;
#X connect 59 0 15 0;
#X connect 60 0 34 0;
#X connect 60 1 18 1;
#X connect 76 0 37 0;
#X connect 81 0 29 0;
