#N canvas 964 197 815 732 12;
#X obj 46 9 cnv 15 400 40 empty empty Chronometer: 20 12 0 24 -262144
-66577 0;
#X obj 160 440 cnv 15 60 40 empty empty empty 20 12 0 14 -204786 -66577
0;
#X obj 178 663 cnv 15 70 35 empty time-cnv 8:30 8 18 2 22 -26 -141988
0;
#X obj 152 255 metro 1000;
#X obj 152 209 loadbang;
#X obj 152 279 f;
#X obj 152 234 tgl 15 0 empty empty empty 17 7 0 10 -191407 -1 -1 1
1;
#X obj 196 279 + 1;
#X obj 152 376 trigger f f;
#X obj 152 402 div 60;
#X obj 226 401 mod 60;
#X msg 152 556 label \$1:\$2;
#X obj 226 436 moses 10;
#X obj 226 464 makefilename 0%d;
#X obj 152 501 list append;
#X floatatom 164 444 3 0 0 0 - - -;
#X floatatom 193 445 3 0 0 0 - - -;
#X text 162 461 min;
#X text 192 461 sec;
#X obj 152 334 nbx 5 14 -1e+37 1e+37 0 0 empty empty empty 0 -8 0 10
-203904 -1 -1 510 256;
#X obj 152 592 send time-cnv;
#X obj 103 592 print;
#X text 142 637 Cronômetro:;
#X text 24 107 This is a nice looking chronometer for display on your
canvas. It's kind of a review here: [div] & [mod] helps us get minutes
and seconds from [metro] feeding a counter at every second.;
#X text 369 407 we send minutes & seconds to the label of a GUI canvas
in the format "minutes:seconds". We need the objects [moses] and [makefilename]
because for seconds smaller then "10" we'd get "1:5" instead of "1:05"
\, for example.;
#X text 369 479 So \, when values are smaller than 10 \, [moses] send
data to [makefilname] \, which adds a zero before. Although it looks
like a number \, this is now a symbol. [list append] sends a list with
values of minutes and seconds to "label".;
#X connect 3 0 5 0;
#X connect 4 0 6 0;
#X connect 5 0 7 0;
#X connect 5 0 19 0;
#X connect 6 0 3 0;
#X connect 7 0 5 1;
#X connect 8 0 9 0;
#X connect 8 1 10 0;
#X connect 9 0 15 0;
#X connect 9 0 14 0;
#X connect 10 0 12 0;
#X connect 10 0 16 0;
#X connect 11 0 20 0;
#X connect 11 0 21 0;
#X connect 12 0 13 0;
#X connect 12 1 14 1;
#X connect 13 0 14 1;
#X connect 14 0 11 0;
#X connect 19 0 8 0;
