#N canvas 447 62 640 730 12;
#X obj 35 19 cnv 15 400 40 empty empty Example: 20 12 0 24 -262144
-66577 0;
#X obj 60 284 pack float float float float float float float float
;
#X obj 389 256 t b f;
#X obj 337 257 t b f;
#X obj 285 257 t b f;
#X obj 234 257 t b f;
#X obj 182 257 t b f;
#X obj 131 257 t b f;
#X obj 79 257 t b f;
#X obj 435 587 nbx 4 18 -1e+37 1e+37 0 0 empty empty empty 0 -8 0 10
-137954 -1 -1 0 256;
#X obj 381 587 nbx 4 18 -1e+37 1e+37 0 0 empty empty empty 0 -8 0 10
-137954 -1 -1 0 256;
#X obj 327 587 nbx 4 18 -1e+37 1e+37 0 0 empty empty empty 0 -8 0 10
-137954 -1 -1 0 256;
#X obj 274 587 nbx 4 18 -1e+37 1e+37 0 0 empty empty empty 0 -8 0 10
-137954 -1 -1 0 256;
#X obj 220 587 nbx 4 18 -1e+37 1e+37 0 0 empty empty empty 0 -8 0 10
-137954 -1 -1 0 256;
#X obj 60 560 unpack float float float float float float float float
;
#X obj 167 587 nbx 4 18 -1e+37 1e+37 0 0 empty empty empty 0 -8 0 10
-137954 -1 -1 0 256;
#X obj 113 587 nbx 4 18 -1e+37 1e+37 0 0 empty empty empty 0 -8 0 10
-137954 -1 -1 0 256;
#X obj 60 588 nbx 4 18 -1e+37 1e+37 0 0 empty empty empty 0 -8 0 10
-137954 -1 -1 0 256;
#X obj 482 266 s harm;
#X msg 482 238 0;
#X obj 482 215 bng 15 250 50 0 empty empty empty 17 7 0 10 -261682
-1 -1;
#X obj 389 203 nbx 4 18 -1e+37 1e+37 0 0 empty harm empty 0 -8 0 10
-191672 -1 -1 0 256;
#X obj 337 203 nbx 4 18 -1e+37 1e+37 0 0 empty harm empty 0 -8 0 10
-191672 -1 -1 0 256;
#X obj 285 203 nbx 4 18 -1e+37 1e+37 0 0 empty harm empty 0 -8 0 10
-191672 -1 -1 0 256;
#X obj 234 203 nbx 4 18 -1e+37 1e+37 0 0 empty harm empty 0 -8 0 10
-191672 -1 -1 0 256;
#X obj 182 203 nbx 4 18 -1e+37 1e+37 0 0 empty harm empty 0 -8 0 10
-191672 -1 -1 0 256;
#X obj 131 203 nbx 4 18 -1e+37 1e+37 0 0 empty harm empty 0 -8 0 10
-191672 -1 -1 0 256;
#X obj 79 203 nbx 4 18 -1e+37 1e+37 0 0 empty harm empty 0 -8 0 10
-191672 -1 -1 0 256;
#X obj 29 203 nbx 4 18 -1e+37 1e+37 0 0 empty harm empty 0 -8 0 10
-191672 -1 -1 0 256;
#X obj 337 229 f;
#X obj 285 229 f;
#X obj 234 229 f;
#X obj 182 229 f;
#X obj 131 229 f;
#X obj 79 229 f;
#X obj 29 229 f;
#X obj 113 383 minmax;
#X obj 60 491 list-math /;
#X obj 113 411 abs;
#X obj 134 441 max;
#X floatatom 134 467 5 0 0 0 - - -;
#X obj 60 349 t l l;
#X text 505 212 reset;
#X text 165 167 ---- list ----;
#X text 172 613 --- normalized list ---;
#X text 42 96 This patch generates a list \, then [minmax] & [list-math]
normalizes it to -1 & 1:;
#X text 156 491 Divides by biggest absolute value;
#X connect 1 0 41 0;
#X connect 2 0 29 0;
#X connect 2 1 1 7;
#X connect 3 0 30 0;
#X connect 3 1 1 6;
#X connect 4 0 31 0;
#X connect 4 1 1 5;
#X connect 5 0 32 0;
#X connect 5 1 1 4;
#X connect 6 0 33 0;
#X connect 6 1 1 3;
#X connect 7 0 34 0;
#X connect 7 1 1 2;
#X connect 8 0 35 0;
#X connect 8 1 1 1;
#X connect 14 0 17 0;
#X connect 14 1 16 0;
#X connect 14 2 15 0;
#X connect 14 3 13 0;
#X connect 14 4 12 0;
#X connect 14 5 11 0;
#X connect 14 6 10 0;
#X connect 14 7 9 0;
#X connect 19 0 18 0;
#X connect 20 0 19 0;
#X connect 21 0 2 0;
#X connect 22 0 29 0;
#X connect 23 0 30 0;
#X connect 24 0 31 0;
#X connect 25 0 32 0;
#X connect 26 0 33 0;
#X connect 27 0 34 0;
#X connect 28 0 35 0;
#X connect 29 0 3 0;
#X connect 30 0 4 0;
#X connect 31 0 5 0;
#X connect 32 0 6 0;
#X connect 33 0 7 0;
#X connect 34 0 8 0;
#X connect 35 0 1 0;
#X connect 36 0 38 0;
#X connect 36 1 39 1;
#X connect 37 0 14 0;
#X connect 38 0 39 0;
#X connect 39 0 40 0;
#X connect 40 0 37 1;
#X connect 41 0 37 0;
#X connect 41 1 36 0;
