#N canvas 538 42 562 533 10;
#X msg 22 55 \; pd dsp \$1;
#X obj 22 28 tgl 15 0 empty empty empty 17 7 0 10 -262144 -1 -1 0 1
;
#X msg 120 85 poll;
#X obj 120 113 MouseState;
#X floatatom 134 166 5 0 0 0 - - -;
#X floatatom 148 142 5 0 0 0 - - -;
#X obj 134 194 osc~;
#X obj 119 223 *~;
#X obj 119 284 *~;
#X floatatom 182 256 5 0 0 0 - - -;
#X obj 182 227 + 1;
#X obj 182 194 / -899;
#X obj 60 112 adc~;
#X obj 119 384 dac~;
#X obj 119 346 *~;
#X obj 150 293 vsl 15 50 0 1 0 0 empty empty Gain 0 -9 0 10 -232576
-1 -1 0 1;
#X connect 1 0 0 0;
#X connect 2 0 3 0;
#X connect 3 1 4 0;
#X connect 3 2 5 0;
#X connect 4 0 6 0;
#X connect 5 0 11 0;
#X connect 6 0 7 1;
#X connect 7 0 8 0;
#X connect 8 0 14 0;
#X connect 10 0 8 1;
#X connect 10 0 9 0;
#X connect 11 0 10 0;
#X connect 12 0 7 0;
#X connect 14 0 13 0;
#X connect 14 0 13 1;
#X connect 15 0 14 1;
