#N canvas 954 550 538 547 12;
#X obj 54 45 cnv 15 400 40 empty empty Repeated: 20 12 0 24 -262144
-66577 0;
#X msg 95 179 3 15 3;
#X msg 95 215 \$1 \$1 \$2 \$1 \$2 \$2 \$3 \$1 \$3 \$2 \$1 \$2;
#X floatatom 111 331 5 0 0 0 - - -;
#X msg 111 365 List Yeah! \$1 23;
#X msg 111 410 \$3 \$1 \$1 \$2 \$1 \$3 \$3 \$1 \$3 \$2 \$1 \$2 \$1
;
#X obj 95 248 print list_A;
#X obj 111 451 print list_B;
#X text 42 104 You can also repeat the same dollarsign number as many
times as you want!;
#X connect 1 0 2 0;
#X connect 2 0 6 0;
#X connect 3 0 4 0;
#X connect 4 0 5 0;
#X connect 5 0 7 0;
