#N canvas 625 22 938 1072 12;
#X obj 24 28 cnv 15 400 40 empty empty Ex:Set-List: 20 12 0 24 -262144
-66577 0;
#X msg 191 437;
#X obj 191 287 list prepend;
#X obj 306 314 l;
#X floatatom 191 213 5 0 0 0 - - -;
#X obj 122 226 bng 15 250 50 0 empty empty empty 17 7 0 10 -262130
-1 -1;
#X text 333 285 Gerar lista;
#X msg 122 288 set;
#X msg 153 698;
#X msg 153 652 add2 \$1;
#X floatatom 153 615 5 0 0 0 - - -;
#X msg 115 652 set;
#X obj 115 615 bng 15 250 50 0 empty empty empty 17 7 0 10 -262130
-1 -1;
#X symbolatom 238 214 10 0 0 0 - - -;
#X symbolatom 201 615 10 0 0 0 - - -;
#X obj 317 377 list prepend set;
#X obj 317 405 list trim;
#X obj 115 183 loadbang;
#X text 75 224 reset;
#X text 72 611 reset;
#X text 47 92 This generates a list like we did before with [list prepend]
\, but we use now "set" to display it.;
#X text 190 182 insert numbers and symbols;
#X text 441 376 wont work because it generates the "list" selector
;
#X text 396 406 that'd need to be trimmed.;
#X obj 191 342 prepend set;
#X text 283 342 prepends the "set" command before the list/message.
;
#X text 223 647 This will now generate a list with only the "add2"
command.;
#X connect 2 0 3 0;
#X connect 2 0 24 0;
#X connect 3 0 2 1;
#X connect 4 0 2 0;
#X connect 5 0 2 1;
#X connect 5 0 7 0;
#X connect 7 0 1 0;
#X connect 9 0 8 0;
#X connect 10 0 9 0;
#X connect 11 0 8 0;
#X connect 12 0 11 0;
#X connect 13 0 2 0;
#X connect 14 0 9 0;
#X connect 15 0 16 0;
#X connect 17 0 5 0;
#X connect 17 0 12 0;
#X connect 24 0 1 0;
