#N canvas 740 105 937 703 12;
#X obj 83 296 &&;
#X obj 101 275 tgl 15 0 empty empty empty 17 7 0 10 -262130 -1 -1 0
1;
#X obj 83 275 tgl 15 0 empty empty empty 17 7 0 10 -261234 -1 -1 0
1;
#X obj 83 325 tgl 15 0 empty &&-tgl empty 17 7 0 10 -62784 -24198 -62784
0 1;
#X obj 101 249 r dir;
#X obj 83 222 r esq;
#X msg 262 288 \; dir \$1 \; esq \$2;
#X msg 240 179 0 0;
#X msg 253 203 0 1;
#X msg 263 226 1 0;
#X msg 273 250 1 1;
#X obj 349 556 == 10;
#X obj 290 557 != 0;
#X obj 331 586 &&;
#X obj 47 557 expr ($f1 != 0) && ($f2 == 10);
#X text 30 511 a;
#X text 239 510 b;
#X floatatom 254 511 5 0 0 0 - b -;
#X floatatom 47 512 5 0 0 0 - a -;
#X obj 292 636 spigot;
#X obj 331 614 tgl 15 0 empty empty empty 17 7 0 10 -204800 -1 -1 1
1;
#X obj 8 612 spigot;
#X obj 47 587 tgl 15 0 empty empty empty 17 7 0 10 -204800 -1 -1 1
1;
#X obj 560 264 tgl 15 0 empty empty empty 17 7 0 10 -262130 -1 -1 0
1;
#X obj 542 264 tgl 15 0 empty empty empty 17 7 0 10 -261234 -1 -1 0
1;
#X obj 542 319 tgl 15 0 empty ||-tgl empty 17 7 0 10 -62784 -24198
-62784 0 1;
#X obj 560 235 r dir;
#X obj 542 210 r esq;
#X obj 542 290 ||;
#X obj 681 37 loadbang;
#X msg 681 61 \; &&-tgl label \; ||-tgl label \; b 10 \; a 2;
#N canvas 468 445 576 415 tgl-label 0;
#X obj 151 139 sel 0 1;
#X obj 151 101 inlet;
#X msg 174 171 \; ||-tgl label True \; ||-tgl color 18 16 18;
#X msg 150 232 \; ||-tgl label False \; ||-tgl color 13 12 13;
#X connect 0 0 3 0;
#X connect 0 1 2 0;
#X connect 1 0 0 0;
#X restore 542 345 pd tgl-label;
#N canvas 0 22 450 300 tgl-label 0;
#X obj 151 139 sel 0 1;
#X obj 151 101 inlet;
#X msg 150 226 \; &&-tgl label False \; &&-tgl color 13 12 13;
#X msg 174 165 \; &&-tgl label True \; &&-tgl color 18 16 18;
#X connect 0 0 2 0;
#X connect 0 1 3 0;
#X connect 1 0 0 0;
#X restore 83 349 pd tgl-label;
#X obj -32 -8 cnv 15 400 40 empty empty &-Or: 20 12 0 24 -262144 -66577
0;
#X text 67 272 a;
#X text 528 261 a;
#X text 579 261 b;
#X text 119 272 b;
#X text -11 434 ============================================================
;
#X text 461 516 BITWISE:;
#X obj 528 515 &;
#X obj 556 515 |;
#X obj 583 515 <<;
#X obj 610 515 >>;
#X text 446 485 ============================================================
;
#X text 446 609 ============================================================
;
#X text 9 55 [&&] "And" / [||] "Or" are logical operators and also
conditional objects! It's the same as "&&" and "||" in C language \;
[&&] checks if right "AND" left inlets are "True" (not 0) [||] checks
if right "OR" left inlets are "True" (not 0).;
#X text 204 144 Click these options";
#X text 278 176 False / False;
#X text 295 200 False / True;
#X text 304 226 True / False;
#X text 314 250 True / True;
#X text 115 294 "AND";
#X text 572 291 "OR";
#X text 479 376 True (1) if a "OR" b are true:;
#X text 19 380 True (1) if a "AND" b are true:;
#X text -13 460 Example \; (Open [spigot] if "a" not eqaul to 0 AND
"b" equal to 10);
#X text 268 556 =;
#X text 452 554 You may check the help file for these objects. But
if you'e not into programming and have no idea what "Bit Twiddling"
is \, maybe you don't need them...;
#X connect 0 0 3 0;
#X connect 1 0 0 1;
#X connect 2 0 0 0;
#X connect 3 0 32 0;
#X connect 4 0 1 0;
#X connect 5 0 2 0;
#X connect 7 0 6 0;
#X connect 8 0 6 0;
#X connect 9 0 6 0;
#X connect 10 0 6 0;
#X connect 11 0 13 1;
#X connect 12 0 13 0;
#X connect 13 0 20 0;
#X connect 14 0 22 0;
#X connect 17 0 14 1;
#X connect 17 0 11 0;
#X connect 18 0 14 0;
#X connect 18 0 12 0;
#X connect 20 0 19 1;
#X connect 22 0 21 1;
#X connect 23 0 28 1;
#X connect 24 0 28 0;
#X connect 25 0 31 0;
#X connect 26 0 23 0;
#X connect 27 0 24 0;
#X connect 28 0 25 0;
#X connect 29 0 30 0;
