#N canvas 656 39 939 432 12;
#X obj 47 372 +;
#X floatatom 47 401 5 0 0 0 - - -;
#X msg 47 278 1;
#X msg 65 329 5;
#X obj 629 297 +;
#X floatatom 629 321 5 0 0 0 - - -;
#X msg 532 262 1;
#X msg 572 262 2;
#X msg 612 262 3;
#X msg 682 262 4;
#X msg 722 262 5;
#X msg 762 262 6;
#X obj 21 14 cnv 15 400 40 empty empty Hot/Cold_Inlet: 20 12 0 24 -262144
-66577 0;
#X obj 845 265 +;
#X msg 863 241 1;
#X msg 831 241 1;
#X floatatom 845 288 5 0 0 0 - - -;
#X obj 845 311 bng 15 250 50 0 empty empty empty 0 -6 0 10 -262144
-1 -1;
#X floatatom 754 369 5 0 0 0 - - -;
#X floatatom 739 320 5 0 0 0 - - -;
#X floatatom 786 320 5 0 0 0 - - -;
#X obj 754 345 + 100;
#X obj 534 186 dac~;
#X floatatom 547 116 5 0 0 0 - - -;
#X obj 547 144 osc~ 440 0;
#X msg 614 116 1;
#X text 32 69 The Hot Inlet is the one that normally makes the object
do something and send out a message as result.;
#X text 32 114 In just about every case \, the hot inlet is the leftmost
one \, and all of the remaining are cold (Note: An object can have
none or several inlets/outlets).;
#X text 32 175 Cold inlets can olny change parameters os settings of
an object.;
#X text 33 215 Lets check the [+] object that sums two numbers. Click
on the messages at the following order:;
#X text 85 267 1) Message to the hot (left) inlet. Data gets into the
object (which has the default value of 0) \, it's adds up to "0" and
comes out.;
#X text 100 326 2) Message to the right (cold) inlet. Data changes
the parameter of [+] \, nothing comes out.;
#X text 99 374 3) Click again on the message connected to the hot inlet.
Now we see "1" added to "5" \, and the value 6 comes out.;
#X text 496 28 Because audio objects generate data constantly \, the
hot/cold inlet doesn't make sense here!;
#X text 525 81 Left inlet changes frequency;
#X text 649 115 Right Inlet resets initial phase.;
#X text 626 144 Arguments \, Frequency & phase.;
#X text 570 175 Left Inlet - Out to Left Speaker;
#X text 571 192 Right Inlet - Out to Right Speaker;
#X text 611 233 try around:;
#X text 545 290 "hot" -->;
#X text 663 290 <-- "cold";
#X connect 0 0 1 0;
#X connect 2 0 0 0;
#X connect 3 0 0 1;
#X connect 4 0 5 0;
#X connect 6 0 4 0;
#X connect 7 0 4 0;
#X connect 8 0 4 0;
#X connect 9 0 4 1;
#X connect 10 0 4 1;
#X connect 11 0 4 1;
#X connect 13 0 16 0;
#X connect 14 0 13 1;
#X connect 15 0 13 0;
#X connect 16 0 17 0;
#X connect 19 0 21 0;
#X connect 20 0 21 1;
#X connect 21 0 18 0;
#X connect 23 0 24 0;
#X connect 24 0 22 0;
#X connect 24 0 22 1;
#X connect 25 0 24 1;
