#N canvas 404 182 923 607 12;
#X obj 193 160 symbol;
#X obj 212 206 f;
#X obj 155 207 float;
#X obj 507 354 float;
#X msg 532 322 123;
#X obj 598 496 float;
#X msg 644 470 123;
#X msg 598 471 432;
#X msg 574 321 321;
#X floatatom 507 378 5 0 0 0 - - -;
#X floatatom 527 217 5 0 0 0 - - -;
#X floatatom 598 525 5 0 0 0 - - -;
#X obj 12 43 cnv 15 400 40 empty empty Storage_Objects: 20 12 0 24
-262144 -66577 0;
#X obj 527 188 float 5.5;
#X obj 641 187 symbol yoyo;
#X symbolatom 641 216 10 0 0 0 - - -;
#X msg 527 160 bang;
#X msg 641 159 bang;
#X msg 469 323 bang;
#X obj 657 349 symbol yoyo;
#X symbolatom 657 378 10 0 0 0 - - -;
#X msg 657 321 bang;
#X msg 544 471 bang;
#X msg 731 290 symbol one;
#X msg 753 320 symbol two;
#X obj 216 361 any;
#X text 197 206 =;
#X text 200 260 =;
#X obj 215 261 l;
#X obj 96 363 iem_anything;
#X text 193 361 =;
#X obj 144 523 float 18;
#X text 211 522 =;
#X obj 228 522 f 18;
#X text 266 521 =;
#X obj 282 521 18;
#X text 247 206 number;
#X text 252 361 any type of data;
#X text 246 159 symbol;
#X text 50 447 If you put a number into an object box \, see that you
actually have a [float] object with that number as an argument:;
#X text 443 59 Standard behavior:;
#X text 461 88 Bang on the hot inlet spits the stored data (like the
argument). If other messages are sent to any of the inlets \, the argument
is obsolete.;
#X text 506 282 Cold Inlet stores the Data;
#X text 509 434 Hot Inlet stores and sends out the Data;
#X text 38 107 Objetcs that stores data:;
#X text 48 417 =========================================================
;
#X text 251 260 lists;
#X obj 169 304 list;
#X text 210 304 can also store lists;
#X obj 136 262 listener;
#X connect 3 0 9 0;
#X connect 4 0 3 1;
#X connect 5 0 11 0;
#X connect 6 0 5 1;
#X connect 7 0 5 0;
#X connect 8 0 3 1;
#X connect 13 0 10 0;
#X connect 14 0 15 0;
#X connect 16 0 13 0;
#X connect 17 0 14 0;
#X connect 18 0 3 0;
#X connect 19 0 20 0;
#X connect 21 0 19 0;
#X connect 22 0 5 0;
#X connect 23 0 19 1;
#X connect 24 0 19 1;
