#N canvas 299 298 1042 737 12;
#X obj 33 22 cnv 15 400 40 empty empty [pack] 20 12 0 24 -262144 -66577
0;
#X obj 108 230 pack float float float;
#X obj 108 263 print;
#X floatatom 167 367 5 0 0 0 - - -;
#X obj 66 451 print;
#X obj 167 391 t b f;
#X floatatom 100 364 5 0 0 0 - - -;
#X obj 100 390 t b f;
#X floatatom 59 364 5 0 0 0 - - -;
#X floatatom 141 476 5 0 0 0 - - -;
#X floatatom 212 475 5 0 0 0 - - -;
#X floatatom 283 475 5 0 0 0 - - -;
#X obj 108 176 bng 20 250 50 0 empty empty empty 0 -6 0 8 -24198 -1
-1;
#X floatatom 259 176 5 0 0 0 - - -;
#X floatatom 183 177 5 0 0 0 - - -;
#X floatatom 140 177 5 0 0 0 - - -;
#X obj 108 200 float;
#X floatatom 602 199 5 0 0 0 - - -;
#X floatatom 682 200 5 0 0 0 - - -;
#X floatatom 642 200 5 0 0 0 - - -;
#X floatatom 722 200 5 0 0 0 - - -;
#X obj 642 274 print;
#X obj 594 555 print;
#X obj 66 419 pack float float float symbol;
#X obj 141 449 unpack float float float symbol;
#X symbolatom 355 475 10 0 0 0 - - -;
#X obj 234 389 t b s;
#X symbolatom 234 366 10 0 0 0 - - -;
#X obj 642 233 pack f 6 f 2 s;
#X symbolatom 763 200 10 0 0 0 - - -;
#X obj 594 524 pack symbol 12 symbol;
#X floatatom 666 492 5 0 0 0 - - -;
#X msg 612 493 bang;
#X obj 355 498 print;
#X obj 212 499 print;
#X obj 285 497 print;
#X obj 141 500 print;
#X floatatom 327 609 5 0 0 0 - - -;
#X floatatom 369 610 5 0 0 0 - - -;
#X obj 336 688 print;
#X obj 336 635 pack f f f;
#X floatatom 411 609 5 0 0 0 - - -;
#X msg 336 662 \$2 \$1 \$3;
#X text 35 94 We use the [pack] object to generate lists. Because of
the hot/cold inlet paradigm \, the list is only created when a message
gets to the leftmost inlet.;
#X text 52 169 create;
#X text 58 185 list;
#X text 28 305 We can use the [trigger] object to force [pack] to generate
a list whenever it receives a data.;
#X text 49 537 The [unpack] object does the reverse operation \, and
unpacks the lists. The data is sent from right to left outlets!;
#X text 91 641 Hint: The dollarsign can be to;
#X text 84 660 reorder list messages from [pack];
#X text 532 115 You can use "float" & "symbol" arguments (abbreviated
by "f" or "s"). The [pack] object accepts any number as an argument
\, which will be part of the list \, or replaced by another number
on the corrresponding inlet.;
#X text 519 309 List of numbers do not get generated with a "list"
selector because they are implied.;
#X text 515 389 Symbol atoms cannot be set as arguments.;
#X msg 543 457 hi;
#X msg 580 456 symbol hi;
#X msg 738 492 symbol mom;
#X text 516 419 For the hot inlet \, the "symbol" selector is opitional.
;
#X text 541 590 Pack now generates a list message with the "list" selector!
;
#X connect 1 0 2 0;
#X connect 3 0 5 0;
#X connect 5 0 6 0;
#X connect 5 1 23 2;
#X connect 6 0 7 0;
#X connect 7 0 8 0;
#X connect 7 1 23 1;
#X connect 8 0 23 0;
#X connect 9 0 36 0;
#X connect 10 0 34 0;
#X connect 11 0 35 0;
#X connect 12 0 16 0;
#X connect 13 0 1 2;
#X connect 14 0 1 1;
#X connect 15 0 16 1;
#X connect 16 0 1 0;
#X connect 17 0 28 0;
#X connect 18 0 28 2;
#X connect 19 0 28 1;
#X connect 20 0 28 3;
#X connect 23 0 4 0;
#X connect 23 0 24 0;
#X connect 24 0 9 0;
#X connect 24 1 10 0;
#X connect 24 2 11 0;
#X connect 24 3 25 0;
#X connect 25 0 33 0;
#X connect 26 0 3 0;
#X connect 26 1 23 3;
#X connect 27 0 26 0;
#X connect 28 0 21 0;
#X connect 29 0 28 4;
#X connect 30 0 22 0;
#X connect 31 0 30 1;
#X connect 32 0 30 0;
#X connect 37 0 40 0;
#X connect 38 0 40 1;
#X connect 40 0 42 0;
#X connect 41 0 40 2;
#X connect 42 0 39 0;
#X connect 53 0 30 0;
#X connect 54 0 30 0;
#X connect 55 0 30 2;
